<svg width="26" height="26" viewBox="0 0 26 26" fill="none" xmlns="http://www.w3.org/2000/svg">
<path d="M4.33325 1.08334H11.9166C12.5149 1.08334 12.9999 1.56836 12.9999 2.16667Lnan nanL12.9999 2.16667C12.9999 2.76498 12.5149 3.25 11.9166 3.25H4.33325C3.73494 3.25 3.24992 3.73503 3.24992 4.33334V21.6667C3.24992 22.265 3.73494 22.75 4.33325 22.75H21.6666C22.2649 22.75 22.7499 22.265 22.7499 21.6667V14.0833C22.7499 13.485 23.2349 13 23.8333 13Lnan nanL23.8333 13C24.4316 13 24.9166 13.485 24.9166 14.0833V21.6667C24.9166 23.4616 23.4615 24.9167 21.6666 24.9167H4.33325C2.53833 24.9167 1.08325 23.4616 1.08325 21.6667V4.33334C1.08325 2.53841 2.53833 1.08334 4.33325 1.08334Z" fill="white"/>
<path fill-rule="evenodd" clip-rule="evenodd" d="M23.081 2.03524C21.8118 0.766035 19.754 0.766035 18.4848 2.03524L6.92138 13.5987C6.48431 14.0358 6.18095 14.5884 6.04686 15.1918L5.4697 17.789C5.12568 19.3371 6.50671 20.7181 8.05479 20.3741L10.652 19.7969C11.2554 19.6629 11.808 19.3595 12.2451 18.9224L23.8086 7.35897C25.0778 6.08977 25.0778 4.03198 23.8086 2.76278L23.081 2.03524ZM20.0169 3.5673C20.44 3.14424 21.1259 3.14424 21.549 3.5673L22.2765 4.29484C22.6996 4.71791 22.6996 5.40384 22.2765 5.82691L20.1948 7.90862L17.9352 5.64902L20.0169 3.5673ZM16.4031 7.18108L8.45344 15.1308C8.30775 15.2765 8.20663 15.4607 8.16194 15.6618L7.58477 18.259L10.182 17.6819C10.3831 17.6372 10.5674 17.5361 10.713 17.3904L18.6627 9.44069L16.4031 7.18108Z" fill="white"/>
</svg>
