<svg width="30" height="29" viewBox="0 0 30 29" fill="none" xmlns="http://www.w3.org/2000/svg">
<path fill-rule="evenodd" clip-rule="evenodd" d="M5.23441 13.7494C5.03752 14.2088 5 14.4435 5 14.5V24.1689C5 24.8348 5.55815 25.375 6.25 25.375H10V18.125C10 16.7903 11.1193 15.7083 12.5 15.7083H17.5C18.8807 15.7083 20 16.7903 20 18.125V25.375H23.75C24.4419 25.375 25 24.8348 25 24.1689V14.5C25 14.4435 24.9625 14.2088 24.7656 13.7494C24.5827 13.3227 24.3054 12.7994 23.9434 12.2072C23.2205 11.0246 22.2062 9.64249 21.071 8.32564C19.9332 7.00577 18.7049 5.78754 17.5628 4.91132C16.9918 4.4733 16.4671 4.13985 16.0069 3.92032C15.5363 3.69583 15.2051 3.625 15 3.625C14.7949 3.625 14.4637 3.69583 13.9931 3.92032C13.5329 4.13985 13.0082 4.4733 12.4372 4.91132C11.2951 5.78754 10.0668 7.00577 8.92903 8.32564C7.79381 9.64249 6.77952 11.0246 6.05663 12.2072C5.6946 12.7994 5.41731 13.3227 5.23441 13.7494ZM12.8868 1.75319C13.5441 1.43959 14.2676 1.20834 15 1.20834C15.7324 1.20834 16.4559 1.43959 17.1132 1.75319C17.781 2.07174 18.4574 2.51238 19.1169 3.01837C20.4357 4.03017 21.7856 5.37965 22.9915 6.77853C24.2001 8.18043 25.2951 9.66812 26.0957 10.9777C26.4954 11.6316 26.8333 12.26 27.0752 12.8245C27.3032 13.3563 27.5 13.9523 27.5 14.5V24.1689C27.5 26.1724 25.8196 27.7917 23.75 27.7917H20C18.6193 27.7917 17.5 26.7097 17.5 25.375V18.125H12.5V25.375C12.5 26.7097 11.3807 27.7917 10 27.7917H6.25C4.18042 27.7917 2.5 26.1724 2.5 24.1689V14.5C2.5 13.9523 2.69685 13.3563 2.92477 12.8245C3.16667 12.26 3.50462 11.6316 3.90431 10.9777C4.70486 9.66812 5.79994 8.18043 7.00847 6.77853C8.21441 5.37965 9.56426 4.03017 10.8831 3.01837C11.5426 2.51238 12.219 2.07174 12.8868 1.75319Z" fill="white"/>
</svg>
