<svg width="30" height="30" viewBox="0 0 30 30" fill="none" xmlns="http://www.w3.org/2000/svg">
<path fill-rule="evenodd" clip-rule="evenodd" d="M15 0C14.0434 0 13.2866 0.157135 12.6959 0.449018C12.4806 0.555362 12.2758 0.680843 12.1108 0.783963L11.9879 0.86101C11.8643 0.938754 11.7603 1.00417 11.651 1.06731C11.3683 1.23073 11.2612 1.24811 11.2507 1.24982C11.2498 1.24997 11.2502 1.24982 11.2507 1.24982C9.86995 1.24982 8.75 2.36929 8.75 3.75H7.5C5.42893 3.75 3.75 5.42893 3.75 7.5V25C3.75 27.0711 5.42893 28.75 7.5 28.75H22.5C24.5711 28.75 26.25 27.0711 26.25 25V7.5C26.25 5.42893 24.5711 3.75 22.5 3.75H21.25C21.25 2.36929 20.1307 1.25 18.75 1.25C18.7504 1.25 18.7509 1.25014 18.75 1.25C18.7395 1.24829 18.6317 1.23073 18.349 1.06731C18.2397 1.00416 18.1357 0.938755 18.012 0.861005L17.8892 0.783963C17.7242 0.680842 17.5194 0.555362 17.3041 0.449018C16.7134 0.157135 15.9566 0 15 0ZM20.9155 6.25C20.4833 6.99725 19.6754 7.5 18.75 7.5H11.25C10.3246 7.5 9.51672 6.99725 9.08446 6.25H7.5C6.80964 6.25 6.25 6.80964 6.25 7.5V25C6.25 25.6904 6.80964 26.25 7.5 26.25H22.5C23.1904 26.25 23.75 25.6904 23.75 25V7.5C23.75 6.80964 23.1904 6.25 22.5 6.25H20.9155ZM13.8033 2.69036C13.9532 2.61627 14.3031 2.5 15 2.5C15.6969 2.5 16.0468 2.61627 16.1967 2.69036C16.291 2.73692 16.4045 2.80418 16.5646 2.90416L16.6576 2.96259C16.7875 3.04428 16.9441 3.14285 17.0979 3.23173C17.464 3.44337 18.0542 3.75 18.75 3.75V5H11.25V3.75C11.9458 3.75 12.536 3.44337 12.9021 3.23173C13.0559 3.14285 13.2125 3.04428 13.3424 2.9626L13.4354 2.90416C13.5955 2.80418 13.709 2.73692 13.8033 2.69036Z" fill="white"/>
</svg>
