<svg width="33" height="33" viewBox="0 0 33 33" fill="none" xmlns="http://www.w3.org/2000/svg">
<path d="M12.375 20.625C11.6156 20.625 11 21.2406 11 22C11 22.7594 11.6156 23.375 12.375 23.375C13.1344 23.375 13.75 22.7594 13.75 22C13.75 21.2406 13.1344 20.625 12.375 20.625Z" fill="white"/>
<path d="M19.25 22C19.25 21.2406 19.8656 20.625 20.625 20.625C21.3844 20.625 22 21.2406 22 22C22 22.7594 21.3844 23.375 20.625 23.375C19.8656 23.375 19.25 22.7594 19.25 22Z" fill="white"/>
<path fill-rule="evenodd" clip-rule="evenodd" d="M16.5 1.375C14.9812 1.375 13.75 2.60622 13.75 4.125C13.75 5.14289 14.303 6.03161 15.125 6.5071V9.625H8.25C5.97183 9.625 4.125 11.4718 4.125 13.75V27.5C4.125 29.7782 5.97183 31.625 8.25 31.625H24.75C27.0282 31.625 28.875 29.7782 28.875 27.5V13.75C28.875 11.4718 27.0282 9.625 24.75 9.625H17.875V6.5071C18.697 6.03161 19.25 5.14289 19.25 4.125C19.25 2.60622 18.0188 1.375 16.5 1.375ZM6.875 13.75C6.875 12.9906 7.49061 12.375 8.25 12.375H10.1502L12.1401 16.3548C12.606 17.2865 13.5582 17.875 14.5998 17.875H18.4002C19.4418 17.875 20.3941 17.2865 20.8599 16.3548L22.8498 12.375H24.75C25.5094 12.375 26.125 12.9906 26.125 13.75V27.5C26.125 28.2594 25.5094 28.875 24.75 28.875H8.25C7.49061 28.875 6.875 28.2594 6.875 27.5V13.75ZM18.4002 15.125L19.7752 12.375H13.2248L14.5998 15.125H18.4002Z" fill="white"/>
<path d="M1.375 19.25C0.615609 19.25 0 19.8656 0 20.625V23.375C0 24.1344 0.615609 24.75 1.375 24.75C2.13439 24.75 2.75 24.1344 2.75 23.375V20.625C2.75 19.8656 2.13439 19.25 1.375 19.25Z" fill="white"/>
<path d="M30.25 20.625C30.25 19.8656 30.8656 19.25 31.625 19.25C32.3844 19.25 33 19.8656 33 20.625V23.375C33 24.1344 32.3844 24.75 31.625 24.75C30.8656 24.75 30.25 24.1344 30.25 23.375V20.625Z" fill="white"/>
</svg>
